<?xml version="1.0" standalone="no"?><!DOCTYPE svg PUBLIC "-//W3C//DTD SVG 1.1//EN" "http://www.w3.org/Graphics/SVG/1.1/DTD/svg11.dtd"><svg t="1530853801653" class="icon" style="" viewBox="0 0 1024 1024" version="1.1" xmlns="http://www.w3.org/2000/svg" p-id="3734" xmlns:xlink="http://www.w3.org/1999/xlink" width="200" height="200"><defs><style type="text/css"></style></defs><path d="M284.444 910.222h341.334v56.89H284.444z" fill="#78a4fa" p-id="3735"></path><path d="M568.889 284.444v-56.888c204.8 0 398.222 164.977 398.222 369.777S802.133 967.111 597.333 967.111v-56.889c170.667 0 312.89-142.222 312.89-312.889S739.555 284.444 568.888 284.444z m0-56.888c204.8 0 398.222 164.977 398.222 369.777S802.133 967.111 597.333 967.111v-56.889c170.667 0 312.89-142.222 312.89-312.889S739.555 284.444 568.888 284.444v-56.888z m-455.111 0h455.11v56.888h-455.11z" fill="#78a4fa" p-id="3736"></path><path d="M95.403 213.732L296.562 414.89l-40.278 40.22L55.182 253.952z" fill="#78a4fa" p-id="3737"></path><path d="M297.13 90.226L95.973 291.27l-40.22-40.163L256.852 50.062z" fill="#78a4fa" p-id="3738"></path></svg>