<?xml version="1.0" standalone="no"?><!DOCTYPE svg PUBLIC "-//W3C//DTD SVG 1.1//EN" "http://www.w3.org/Graphics/SVG/1.1/DTD/svg11.dtd"><svg t="1539279797001" class="icon" style="" viewBox="0 0 1024 1024" version="1.1" xmlns="http://www.w3.org/2000/svg" p-id="4599" xmlns:xlink="http://www.w3.org/1999/xlink" width="200" height="200"><defs><style type="text/css"></style></defs><path d="M481.168 275.639l18.359-34.52c26-48.98 84.021-65.301 137.76-38.94 24.84 12.2 43.179 33.22 51.559 59.159 8.38 25.93 5.86 53.74-7.159 78.16l-57.78 108.71c-17.819 33.59-41.08 55.191-67.02 63.569-21.181 6.87-44.08 4.911-67.32-6.5-13.44-6.66-18.799-22.83-11.779-36.199 7.02-13.36 23.559-18.771 37.139-12.13 10.121 4.989 33.861 16.609 60.301-33.081l57.86-108.719c6.139-11.55 7.3-24.63 3.399-36.829-4.06-12.21-12.66-22.1-24.4-27.89-22.06-10.76-50.28-10.331-63.799 15.029l-18.359 34.521c-7.081 13.29-23.68 18.64-37.201 11.92C479.287 305.179 474.108 288.94 481.168 275.639L481.168 275.639zM386.688 674.018c25.58 12.56 54.26 13.659 79.84 5.42 25.56-8.32 48.16-26.02 61.519-51.159l14.739-27.73c7.101-13.291 1.9-29.55-11.559-36.26-13.42-6.719-30.101-1.37-37.12 11.93l-14.739 27.66c-12.78 23.979-43.04 33.8-67.4 21.811-11.759-5.711-20.36-15.611-24.319-27.81-3.92-12.2-2.761-25.281 3.399-36.771l54.24-101.929c11.261-21.089 34.439-54.311 63.92-39.93 13.56 6.64 30.119 1.22 37.119-12.14 6.94-13.37 1.6-29.549-11.9-36.19-50.059-24.559-104.26 0.501-137.899 63.86l-54.239 101.909c-13 24.491-15.54 52.23-7.159 78.161C343.488 640.848 361.848 661.798 386.688 674.018L386.688 674.018zM855.227 83.719l0 856.538c0 46.24-37.52 83.74-83.739 83.74L252.488 1023.997c-46.24 0-83.719-37.501-83.719-83.74L168.769 83.719C168.769 37.48 206.248 0 252.488 0l519.078 0C817.706 0.07 855.127 37.48 855.227 83.719L855.227 83.719zM575.888 906.238c0-35.24-28.619-63.84-63.88-63.84-35.24 0-63.84 28.6-63.84 63.84 0 35.26 28.6 63.859 63.84 63.859C547.268 970.097 575.888 941.497 575.888 906.238L575.888 906.238zM769.307 85.949 254.809 85.949l0 702.548 514.438 0L769.307 85.949 769.307 85.949z" p-id="4600" fill="#78a4fa"></path></svg>