<?xml version="1.0" standalone="no"?><!DOCTYPE svg PUBLIC "-//W3C//DTD SVG 1.1//EN" "http://www.w3.org/Graphics/SVG/1.1/DTD/svg11.dtd"><svg class="icon" width="200px" height="200.00px" viewBox="0 0 1024 1024" version="1.1" xmlns="http://www.w3.org/2000/svg"><path d="M725.333333 768c-47.36 0-85.333333 37.973333-85.333333 85.333333a85.333333 85.333333 0 0 0 85.333333 85.333334 85.333333 85.333333 0 0 0 85.333334-85.333334 85.333333 85.333333 0 0 0-85.333334-85.333333M42.666667 85.333333v85.333334h85.333333l153.6 323.84-58.026667 104.533333c-6.4 11.946667-10.24 26.026667-10.24 40.96a85.333333 85.333333 0 0 0 85.333334 85.333333h512v-85.333333H316.586667a10.666667 10.666667 0 0 1-10.666667-10.666667c0-2.133333 0.426667-3.84 1.28-5.12L345.6 554.666667h317.866667c32 0 60.16-17.92 74.666666-43.946667l152.746667-276.053333c2.986667-6.826667 5.12-14.08 5.12-21.333334a42.666667 42.666667 0 0 0-42.666667-42.666666H222.293333l-40.106666-85.333334M298.666667 768c-47.36 0-85.333333 37.973333-85.333334 85.333333a85.333333 85.333333 0 0 0 85.333334 85.333334 85.333333 85.333333 0 0 0 85.333333-85.333334 85.333333 85.333333 0 0 0-85.333333-85.333333z" fill="#ffffff" /></svg>