<?xml version="1.0" encoding="UTF-8"?>
<svg width="260px" height="260px" viewBox="0 0 260 260" version="1.1" xmlns="http://www.w3.org/2000/svg" xmlns:xlink="http://www.w3.org/1999/xlink">
    <!-- Generator: Sketch 51.2 (57519) - http://www.bohemiancoding.com/sketch -->
    <title>cutting</title>
    <desc>Created with Sketch.</desc>
    <defs></defs>
    <g id="Page-1" stroke="none" stroke-width="1" fill="none" fill-rule="evenodd">
        <g id="Apple-TV" transform="translate(-674.000000, -326.000000)" fill-rule="nonzero">
            <g id="cutting" transform="translate(674.000000, 326.000000)">
                <rect id="Rectangle-Copy-3" fill="#FFFFFF" x="0" y="0" width="260" height="260"></rect>
                <g id="裁片查询" transform="translate(57.000000, 40.000000)" fill="#78A4FA" stroke="#78A4FA" stroke-width="3">
                    <path d="M26.4285714,17.5991282 C26.4285714,17.5991282 45.8095237,10.5594768 47.5714286,10.5594768 C51.0952381,24.6387793 58.1428571,36.9581691 74,36.9581691 C88.0952381,36.9581691 96.9047619,22.8788666 100.428571,10.5594768 L121.571429,17.5991282 C119.809524,26.3986923 118.047619,40.4779948 121.571429,49.2775588 C121.571429,52.7973845 121.571429,54.5572973 123.333333,56.3172102 C125.095238,58.0771231 125.095238,59.8370359 126.857143,59.8370359 C130.380952,63.3568615 133.904762,65.1167743 137.428571,66.876687 L137.428571,72.1564256 C132.142857,98.5551179 132.142857,119.674072 135.666667,144.312851 C135.666667,153.112415 137.428571,161.911979 139.190476,168.951631 C128.619048,170.711543 118.047619,170.711543 107.476191,172.471456 C88.0952382,174.231369 44.047619,174.231369 24.6666667,170.711543 C19.3809525,170.711543 14.0952382,170.711543 8.80952381,168.951631 C7.04761912,167.191718 14.0952381,126.713723 14.0952381,117.914159 L14.0952381,91.5154665 C12.3333334,80.9559897 10.5714285,72.1564256 8.80952381,66.876687 C17.6190476,65.1167743 24.6666667,58.0771229 26.4285714,49.2775588 C28.1904761,40.4779948 26.4285714,28.158605 26.4285714,17.5991282 Z M17.6190476,12.3193898 C17.6190476,17.5991282 19.3809523,22.8788666 19.3809523,28.158605 L19.3809523,45.7577334 C17.6190476,54.5572974 12.3333332,56.3172102 7.04761912,59.8370359 C3.52380956,61.5969486 1.76190487,61.5969486 0,63.3568615 C1.76190469,72.1564256 3.52380956,79.1960769 5.28571425,89.7555538 C7.04761894,98.5551179 7.04761894,109.114595 5.28571425,119.674072 C3.52380956,139.033112 0,158.392154 0,177.751195 C12.3333334,177.751195 24.6666667,179.511107 36.9999999,179.511107 C52.8571428,181.27102 75.7619047,183.030933 93.3809523,181.27102 C98.6666665,181.27102 105.714286,181.27102 111,179.511107 C123.333333,179.511107 135.666667,177.751195 148,177.751195 C148,175.991282 144.47619,154.872328 144.47619,149.592589 C140.952381,124.95381 140.952381,102.074943 144.47619,75.6762511 C144.47619,70.3965127 146.238095,66.876687 146.238095,61.5969486 L144.47619,59.8370359 L140.952381,59.8370359 C139.190476,58.0771231 137.428571,58.0771231 133.904762,56.3172102 C126.857143,51.0374718 128.619048,38.718082 128.619048,28.158605 C128.619048,22.8788666 130.380952,15.8392152 130.380952,12.3193898 L95.1428572,0 C91.6190476,5.27973842 89.8571429,29.9185179 74,29.9185179 C56.3809524,29.9185179 54.6190475,3.51982567 52.8571428,0 L35.2380952,7.03965134 C31.7142857,7.03965134 19.3809523,10.559477 17.6190476,12.3193898 Z" id="Shape"></path>
                </g>
            </g>
        </g>
    </g>
</svg>