<?xml version="1.0" encoding="UTF-8"?>
<svg width="260px" height="260px" viewBox="0 0 260 260" version="1.1" xmlns="http://www.w3.org/2000/svg" xmlns:xlink="http://www.w3.org/1999/xlink">
    <!-- Generator: Sketch 51.2 (57519) - http://www.bohemiancoding.com/sketch -->
    <title>express-black</title>
    <desc>Created with Sketch.</desc>
    <defs></defs>
    <g id="Page-1" stroke="none" stroke-width="1" fill="none" fill-rule="evenodd">
        <g id="Apple-TV" transform="translate(-373.000000, -33.000000)" fill-rule="nonzero">
            <g id="express-black" transform="translate(373.000000, 33.000000)">
                <rect id="Rectangle" fill="#FFFFFF" x="0" y="0" width="260" height="260"></rect>
                <g id="发货" transform="translate(35.000000, 55.000000)" fill="#A0A0A0">
                    <path d="M7.96918848,11.1758618 C13.8052395,4.52813478 22.6346893,0.289939889 31.7440972,0.0102620532 L88.3602522,0.0102620532 C95.0361777,-0.161847384 101.690568,1.83892482 107.182055,5.41019565 C113.276529,9.36871271 117.928141,15.3064883 120.189342,21.9972427 C127.662071,22.0187563 135.113266,21.9972427 142.585995,22.0187563 C145.514788,22.04027 148.486652,21.8681606 151.39391,22.4060026 C156.950003,23.3310908 162.096926,26.0418144 166.01634,29.8712494 C172.261561,36.0241618 178.657528,42.0264784 184.881213,48.1793908 C186.582497,49.8789715 188.499134,51.4279564 189.87739,53.3857013 C191.470998,55.6016103 192.504689,58.2047655 192.849253,60.8939755 C193.04307,62.3138784 192.95693,63.7552949 192.978465,65.1967114 C192.978465,86.6458501 192.95693,108.094989 193,129.544127 C192.504689,129.716237 191.966308,129.651696 191.449462,129.651696 L171.76625,129.651696 C170.883305,133.524158 169.09588,137.202997 166.511651,140.279453 C163.109082,144.388566 158.349793,147.465022 153.073659,148.949466 C147.323749,150.584506 141.013922,150.304828 135.45783,148.15346 C127.252902,145.05549 120.92154,137.891435 119.177186,129.651696 L76.6020093,129.651696 C75.5898528,134.191082 73.2855818,138.472304 69.9260838,141.849952 C66.5235154,145.335168 62.0872552,147.895296 57.2633607,149.121576 C51.2550278,150.670561 44.7083138,150.132719 39.06608,147.637132 C31.4641391,144.324025 25.6711586,137.461161 24.0344801,129.651696 C17.9184709,129.587155 11.8239971,129.651696 5.70798792,129.608668 C2.60691287,129.544127 -0.0634573153,126.854917 0.00114841494,123.907543 L0.00114841494,31.6999122 C0.0226836584,24.2992064 2.88687103,16.8769869 7.96918848,11.1758618 Z M17.5954423,16.5112544 C13.2668584,20.5343125 10.8333759,26.2784649 10.8764463,32.0226174 L10.8758842,119.346643 L23.9914096,119.346643 C25.6711586,111.386582 31.5933505,104.416149 39.3891086,101.14607 C44.1268622,99.1237843 49.4891378,98.4568602 54.6145257,99.27438 C60.29983,100.156441 65.6621056,102.845651 69.6245904,106.804168 C73.1563703,110.246357 75.5683176,114.656661 76.6020093,119.346643 C88.080294,119.325129 99.5370435,119.346643 111.015328,119.346643 L111.015328,33.0337603 C110.950723,30.903906 110.950723,28.7310244 110.3262,26.6441975 C109.098692,21.8466469 106.062222,17.4578563 101.90592,14.5104821 C98.1157175,11.7782448 93.3994992,10.2722873 88.6402104,10.3153146 L33.0792823,10.3153146 C27.3293723,10.2938009 21.6009976,12.574251 17.5954423,16.5112544 Z M121.933697,32.3453226 L121.933697,112.247129 C124.991701,106.847195 130.181695,102.609 136.233098,100.50066 C141.315416,98.7150243 146.979185,98.4353465 152.233784,99.7691946 C157.036143,100.952447 161.450868,103.448034 164.874972,106.847195 C168.342146,110.289384 170.775629,114.678175 171.787785,119.368157 L182.146237,119.368157 L182.146237,82.08495 L146.09624,82.08495 L146.09624,32.3668363 C138.020524,32.3453226 129.987878,32.3453226 121.933697,32.3453226 Z M156.928467,35.8950797 C156.971538,47.8351719 156.928467,59.7752642 156.950003,71.7153564 L182.124702,71.7153564 L182.124702,63.1313982 C182.146237,61.9051184 181.801673,60.6788387 181.177151,59.6246684 C180.488024,58.441416 179.368191,57.6023825 178.42064,56.6342669 C171.227869,49.7714031 164.164309,42.7579435 156.928467,35.8950797 Z M143.576616,109.342782 C140.066372,109.751542 136.685338,111.2575 134.208785,113.688545 C131.172316,116.46381 129.449497,120.465354 129.471032,124.466899 C129.471032,128.339361 131.06464,132.233337 133.950363,134.987088 C136.103887,137.181484 138.989609,138.708955 142.069149,139.332852 C146.290057,140.236426 150.898599,139.375879 154.451914,137.030888 C157.725271,134.944061 160.115683,131.630954 161.020164,127.995142 C162.721448,121.713148 159.555767,114.59212 153.61204,111.408095 C150.640176,109.643974 147.022255,108.955536 143.576616,109.342782 Z M46.9264438,109.579433 C41.1119281,110.719658 36.2234279,115.194503 34.8021018,120.680491 C33.7253396,124.53144 34.3713969,128.769635 36.5249213,132.19031 C38.6138399,135.567958 42.1240846,138.149599 46.1081046,139.139228 C49.2953206,139.999776 52.7409596,139.827666 55.8204994,138.730469 C59.416885,137.461161 62.4964248,134.922547 64.3269205,131.717009 C66.2650924,128.360875 66.8034735,124.316303 65.7482466,120.61595 C64.5638082,116.119591 61.0535635,112.290156 56.5957681,110.461493 C53.5808341,109.235214 50.1567304,108.912509 46.9264438,109.579433 Z" id="Shape"></path>
                </g>
            </g>
        </g>
    </g>
</svg>