<?xml version="1.0" standalone="no"?><!DOCTYPE svg PUBLIC "-//W3C//DTD SVG 1.1//EN" "http://www.w3.org/Graphics/SVG/1.1/DTD/svg11.dtd"><svg t="1531456388305" class="icon" style="" viewBox="0 0 1024 1024" version="1.1" xmlns="http://www.w3.org/2000/svg" p-id="1200" xmlns:xlink="http://www.w3.org/1999/xlink" width="200" height="200"><defs><style type="text/css"></style></defs><path d="M704 128c-72.533333 0-145.066667 34.133333-192 89.6C465.066667 162.133333 392.533333 128 320 128 187.733333 128 85.333333 230.4 85.333333 362.666667c0 162.133333 145.066667 294.4 366.933333 490.666667l59.733333 55.466667 59.733333-55.466667c217.6-200.533333 366.933333-332.8 366.933333-490.666667C938.666667 230.4 836.266667 128 704 128zM516.266667 793.6 512 793.6l-4.266667-4.266667C302.933333 605.866667 170.666667 486.4 170.666667 362.666667 170.666667 277.333333 234.666667 213.333333 320 213.333333c64 0 128 42.666667 153.6 102.4l81.066667 0C576 256 640 213.333333 704 213.333333c85.333333 0 149.333333 64 149.333333 149.333333C853.333333 486.4 721.066667 605.866667 516.266667 793.6z" p-id="1201" fill="#ffffff"></path></svg>