<?xml version="1.0" standalone="no"?><!DOCTYPE svg PUBLIC "-//W3C//DTD SVG 1.1//EN" "http://www.w3.org/Graphics/SVG/1.1/DTD/svg11.dtd"><svg t="1539279830812" class="icon" style="" viewBox="0 0 1024 1024" version="1.1" xmlns="http://www.w3.org/2000/svg" p-id="5429" xmlns:xlink="http://www.w3.org/1999/xlink" width="200" height="200"><defs><style type="text/css"></style></defs><path d="" fill="#78a4fa" p-id="5430"></path><path d="M633.58 656.431h-341.685c-7.174 0-13.153 2.391-17.937 7.173-4.783 4.784-7.175 10.611-7.175 17.479s2.391 12.847 7.175 17.936 10.763 7.634 17.937 7.634l-0.027 0.002h341.685c4.783 0 8.973-1.197 12.567-3.588 3.6-2.391 6.438-5.532 8.526-9.414 2.082-3.885 3.125-7.922 3.125-12.112 0.001-7.173-2.238-13.154-6.714-17.938-4.479-4.781-10.305-7.173-17.478-7.173z" fill="#78a4fa" p-id="5431"></path><path d="M633.58 505.763l-341.77 0.028c-7.174 0-13.154 2.391-17.937 7.175-4.783 4.783-7.174 10.762-7.174 17.937 0 4.189 1.197 8.227 3.589 12.11 2.391 3.886 5.386 7.023 8.981 9.414 3.597 2.391 7.787 3.588 12.57 3.588h341.684c3.579 0 6.869-0.747 9.873-2.239s5.549-3.29 7.633-5.394c2.086-2.105 3.732-4.651 4.937-7.635 1.205-2.982 1.807-6.275 1.807-9.872 0.001-7.174-2.238-13.154-6.714-17.937-4.478-4.782-10.304-7.174-17.477-7.174z" fill="#78a4fa" p-id="5432"></path><path d="M633.58 355.098h-341.685c-7.174 0.001-13.153 2.391-17.937 7.175-4.783 4.782-7.175 10.607-7.175 17.476 0 6.869 2.391 12.848 7.175 17.936 4.783 5.090 10.763 7.634 17.937 7.634h341.685c7.174 0.001 13.001-2.544 17.477-7.634 4.477-5.090 6.714-11.068 6.714-17.936 0.001-6.869-2.238-12.693-6.714-17.476-4.478-4.785-10.304-7.175-17.477-7.175z" fill="#78a4fa" p-id="5433"></path><path d="M420.119 247.019c2.375 2.106 5.061 3.903 8.066 5.395 3.003 1.492 5.998 2.238 8.982 2.238h196.412c7.174 0 13.002-2.543 17.477-7.633 4.478-5.090 6.714-11.069 6.715-17.937 0-6.868-2.239-12.693-6.715-17.477-4.478-4.783-10.302-7.174-17.477-7.174l-196.439-0.028c-1.797 0-4.19 0.295-7.174 0.889-11.365 3.597-17.046 11.67-17.046 24.221-0.019 3.598 0.581 6.889 1.807 9.872s3.023 5.531 5.394 7.635z" fill="#78a4fa" p-id="5434"></path><path d="M848.761 234.881c-2.391-5.989-5.825-11.221-10.302-15.698-4.477-4.478-9.71-8.065-15.698-10.763-5.989-2.698-12.266-4.045-18.827-4.046l0.029 0.055h-48.444v-50.222c0-13.757-4.783-25.561-14.348-35.413-9.567-9.853-20.93-14.789-34.094-14.809h-486.985c-13.163 0-24.528 4.935-34.094 14.809s-14.349 21.677-14.349 35.413v602.668c0 13.758 4.783 25.562 14.349 35.412 9.565 9.853 20.93 14.791 34.094 14.81h49.331v50.223c0 13.758 4.63 25.559 13.891 35.412 9.26 9.853 20.767 14.789 34.524 14.81h486.096c6.581 0 12.854-1.349 18.827-4.046 5.968-2.7 11.201-6.287 15.698-10.762 4.497-4.478 7.932-9.862 10.302-16.158 2.373-6.295 3.569-12.723 3.588-19.285v-602.667c0-7.174-1.193-13.757-3.588-19.745zM219.547 759.783v0l-0.001-611.202h491.757v611.202h-491.756zM803.963 857.321v0h-486.095v-50.223h389.237c8.38 0 16.301-2.239 23.763-6.715s13.44-10.609 17.936-18.395c4.496-7.788 6.735-16.158 6.714-25.114v-502.222h48.445v602.669z" fill="#78a4fa" p-id="5435"></path></svg>