<?xml version="1.0" encoding="UTF-8"?>
<svg width="260px" height="260px" viewBox="0 0 260 260" version="1.1" xmlns="http://www.w3.org/2000/svg" xmlns:xlink="http://www.w3.org/1999/xlink">
    <!-- Generator: Sketch 51.2 (57519) - http://www.bohemiancoding.com/sketch -->
    <title>printing-black</title>
    <desc>Created with Sketch.</desc>
    <defs></defs>
    <g id="Page-1" stroke="none" stroke-width="1" fill="none" fill-rule="evenodd">
        <g id="Apple-TV" transform="translate(-73.000000, -33.000000)" fill-rule="nonzero">
            <g id="printing-black" transform="translate(73.000000, 33.000000)">
                <rect id="Rectangle" fill="#FFFFFF" x="0" y="0" width="260" height="260"></rect>
                <g id="印花税" transform="translate(42.000000, 47.000000)" fill="#A0A0A0" stroke="#FFFFFF" stroke-width="3">
                    <path d="M141.37166,104.868625 C132.933543,99.9621428 123.890675,94.7855918 112.050596,88.0839874 C111.24653,87.6292324 110.33236,87.441066 109.448474,87.2593959 C109.123795,87.1928068 108.817194,87.129466 108.517166,87.054292 C108.38256,87.0193707 108.244082,87.0011333 108.10492,87 C107.801136,87 107.069142,87.1125288 106.833674,88.1554491 C106.06224,91.5730724 104.344473,94.6129707 101.728031,97.1904572 C101.178214,97.7315229 101.124922,98.3076232 101.565809,98.952865 C102.341233,100.084416 103.32419,100.96678 104.570786,101.650305 C112.433965,105.961197 121.730613,111.06327 131.063414,116.21778 C131.796817,116.623347 132.468711,117.169981 133.029796,117.65165 C134.655301,119.04631 135.604921,120.964633 136.319307,122.657204 C138.068767,126.800579 138.479839,130.015651 137.652766,133.082231 C136.129853,138.726298 132.199437,142.41051 125.971152,144.033011 C124.495896,144.417233 122.990356,144.604471 121.367903,144.604471 C118.933167,144.604471 116.297004,144.178254 113.072288,143.262944 C107.553695,141.695895 102.091445,139.159939 95.3614702,135.040926 C95.1051081,134.884082 94.7616486,134.703572 94.380392,134.703572 C93.8150808,134.703572 93.4328851,135.084081 93.1633764,135.415403 C89.2322561,140.2488 84.9658929,144.054357 80.1201327,147.049244 C76.3110896,149.403297 72.3398245,150.597029 68.3159725,150.597261 C63.567874,150.597493 58.7939516,148.90237 54.5104505,145.695651 C51.8327343,143.691017 49.5984868,141.05831 47.87086,137.871312 C45.8772456,134.195221 44.0087603,130.366694 42.2017828,126.664385 L41.4028815,125.028427 C41.2254002,124.666015 40.8561166,123.911493 39.9762219,123.911493 C39.7259637,123.911493 39.4480032,123.973673 39.1010222,124.106851 C36.2107141,125.218683 33.1359717,125.78812 30.0344431,125.785965 C29.2491582,125.785965 28.4467353,125.74977 27.6499469,125.678773 C27.0651501,125.626104 26.4852836,125.505223 25.8131546,125.365084 C25.4797899,125.295479 25.1321048,125.22309 24.7632908,125.154876 L24.7628212,125.154876 C24.2346026,125.057197 23.8254092,125.604991 24.0751979,126.075291 L24.0754329,126.075523 C24.4712446,126.820301 24.8560226,127.549997 25.2349313,128.268788 C26.0488576,129.812635 26.8174743,131.2711 27.6210709,132.736756 C32.4600229,141.557148 36.7407068,147.922327 41.5007781,153.375211 C46.5789544,159.193987 51.7439936,162.700938 57.7553563,164.411838 C61.5611128,165.495361 64.7773774,166 67.876964,166 C69.5008255,166 71.1068449,165.852901 72.6508867,165.562646 C76.37025,164.863808 80.0764666,163.391887 83.9810585,161.062659 C87.3020276,159.082619 90.6276921,156.993762 93.8439566,154.973814 L95.5053802,153.930894 C95.6521075,153.839015 95.7669071,153.792379 95.8464921,153.792379 C95.9270161,153.792379 96.0382941,153.838087 96.1864303,153.932286 C97.715447,154.903745 99.3609067,155.932744 101.036181,156.878449 C106.901521,160.189344 112.895981,161.868226 118.853582,161.868226 L118.854052,161.868226 C120.934764,161.868226 123.048108,161.66289 125.135393,161.258019 C138.482891,158.668003 148.00632,150.382877 153.441807,136.633033 C155.60046,131.172956 155.513598,124.864158 153.197653,118.869048 C150.90894,112.944239 146.70878,107.972096 141.37166,104.868625 Z" id="Shape"></path>
                    <path d="M172.857484,62.3422659 C170.584339,57.2603909 166.708159,53.0583084 161.336663,49.8529829 C157.924588,47.8165982 154.373211,45.8948473 150.938744,44.0364715 C149.845161,43.4456609 148.75282,42.8526073 147.661728,42.2573143 C147.287663,42.0529767 147.21483,41.9173731 147.229915,41.4511483 C147.254664,40.6780677 147.292849,39.8872794 147.33009,39.1228196 C147.436865,36.9189107 147.547411,34.639744 147.351539,32.4029828 C146.199646,19.2056249 139.470485,9.48223716 127.350971,3.50286156 C122.867142,1.29103075 117.738659,0.156107493 111.672067,0.0330855462 C110.777092,0.0149118339 109.970036,2.27689396e-07 109.156144,0 C107.579509,0 105.506242,0.0493951653 103.45466,0.433605539 C91.4049156,2.69017162 81.8149951,14.0713256 81.6219521,26.3439225 C81.4965567,34.3254324 81.3334484,42.4406821 81.1757612,50.2889184 C81.1210775,53.0044865 81.0666295,55.7202875 81.0131244,58.4360885 L81.0126529,58.4572912 C80.9827183,59.9866768 80.9520765,61.5680204 81.6009742,63.1162785 C81.7768105,63.5366031 82.109627,64.0953276 82.9659458,64.0953276 C83.0870984,64.0953276 83.2226292,64.0848427 83.3798448,64.0631742 C83.6164932,64.0307877 83.8536131,63.9970033 84.0912045,63.963452 C85.3465728,63.785443 86.6450753,63.6013762 87.892194,63.6013762 C88.0911294,63.6013762 88.2874722,63.6060361 88.4753299,63.6153558 C89.8975779,63.6854876 91.3184115,63.9282694 92.8229208,64.185264 C93.492325,64.2996649 94.1845924,64.418027 94.8928879,64.5231082 L95.3027799,64.5841533 L95.5295289,64.2411832 C96.3245641,63.0382249 96.7431774,61.5013834 96.740113,59.797251 C96.7344561,56.7258982 96.7363417,53.6545452 96.7382274,50.5829592 C96.7422344,44.1834919 96.7462413,37.5664063 96.6793009,31.0567321 C96.6453593,27.8008464 97.5943104,24.984857 99.5806019,22.4477639 C101.595414,19.8736244 103.789362,17.9763383 106.287606,16.6473292 C107.97738,15.7479647 109.881646,15.2919917 111.947135,15.2919917 C116.515818,15.2919917 120.867416,17.5448298 123.153289,19.777397 C126.003206,22.5603008 127.935521,26.1281681 129.234967,31.0061719 C131.124619,38.1032292 131.140882,45.2867278 130.907298,51.3779415 C130.899935,51.6231389 130.898363,51.8684729 130.902584,52.1137428 C130.903763,52.2260469 130.904706,52.3406808 130.904705,52.4585768 L130.904705,52.9926036 L131.84305,53.1582638 C132.116704,53.206028 132.382108,53.2526272 132.646806,53.3015563 C139.038201,54.4851757 144.456367,56.3640554 149.211021,59.045606 C153.09875,61.2385641 156.022208,64.0550193 157.899839,67.4169181 C159.746828,70.7233639 160.63921,74.6579669 160.551999,79.111219 C160.472566,83.1581259 159.200227,87.1493471 156.771045,90.9735098 C154.925234,93.8799017 152.900522,96.7515768 150.942279,99.5288888 C150.090203,100.737672 149.209136,101.987462 148.35376,103.224438 C148.222943,103.412699 148.090476,103.599329 147.947639,103.80087 L147.732675,104.104697 C147.542295,104.373961 147.589713,104.742085 147.842279,104.955598 C152.509958,108.896026 155.26135,112.890043 156.501397,117.524566 C156.639756,118.041817 157.321889,118.171363 157.644334,117.741718 C157.715517,117.646655 157.78175,117.561612 157.84327,117.482393 C157.967015,117.323024 158.084161,117.172276 158.190228,117.008946 C158.771158,116.119743 159.354532,115.232103 159.940343,114.346035 C161.314978,112.262119 162.736519,110.107605 164.07132,107.94447 C168.321093,101.05711 171.531169,94.5721325 173.884925,88.1193092 C177.015096,79.5392325 176.669552,70.8666566 172.857484,62.3422659 Z" id="Shape"></path>
                    <path d="M30.1222018,122 C34.8337476,122 39.3878477,120.857563 43.2908893,118.696745 C46.3825899,116.984505 49.5300821,115.251275 52.5742655,113.574884 L61.524784,108.646181 C65.3048951,106.565078 69.0852429,104.483976 72.8639356,102.400515 C74.2227898,101.651233 75.1658081,100.767519 75.8312873,99.6191865 L76.0936966,99.1665987 L75.704811,98.816132 C72.5076738,95.9357484 70.5202195,92.427072 69.6282644,88.0901053 L69.5190455,87.5592167 L68.9760238,87.5740749 C67.6088953,87.6113385 66.3252179,87.9858616 65.0517057,88.7188699 L60.0893347,91.5794424 C53.0527487,95.6366961 45.7764485,99.832155 38.5966011,103.915824 C37.7966077,104.37077 36.5696673,104.945762 35.2696778,105.100005 C34.3792761,105.206955 33.4833151,105.261294 32.5864842,105.262738 C28.3047222,105.262974 24.4175197,103.948134 21.033623,101.354775 C19.6856433,100.321299 18.6421529,99.0283932 17.9331752,97.5121411 C15.8005685,92.9497061 15.5320127,88.650003 17.1123781,84.3668092 C18.478561,80.6607298 20.9402431,77.2923816 24.8588873,73.7660167 C28.9824946,70.0563998 33.8451028,66.8404076 40.6249534,63.338335 C41.5592248,62.8560306 41.8048492,62.2324545 41.4464598,61.2527514 C39.0126734,54.6106291 37.9105546,48.5852431 38.0772199,42.8327305 C38.2353747,37.3785629 39.7556933,33.0392378 42.7247001,29.5668816 C47.1230096,24.4221436 52.5581902,21.6382208 59.3404046,21.055682 C60.5089531,20.9552118 61.7025605,20.9063916 62.9900204,20.9063916 C66.4587866,20.9063916 69.9859446,21.2759619 73.3972646,21.6332681 L73.6745673,21.6622772 C74.6752684,21.7669927 75.6754968,21.8728873 76.6842355,21.9797255 L78.3742928,22.1582608 C78.7103437,22.1937302 79.0172288,21.96542 79.0790152,21.6339757 L79.0790152,21.6337399 C80.19981,15.6161368 82.3380904,11.2020489 85.8085114,7.74242822 L85.8092207,7.74172066 C86.2028345,7.3492733 85.9496451,6.67711321 85.3943305,6.64008545 L84.1406763,6.55683171 C83.2676337,6.49787018 82.4373805,6.44197488 81.607127,6.3917398 C77.2572805,6.12806438 73.4613301,6 70.0022565,6 C63.6082185,6 57.9264679,6.43560711 52.6321847,7.33182087 C44.9499775,8.63250998 39.2408038,11.1933224 34.6659002,15.3904325 C30.3252734,19.3719795 27.656028,22.977117 26.0106511,27.0794171 C24.5033348,30.8378543 23.7775723,35.0821334 23.7922294,40.0551757 C23.8035769,43.9074793 23.9146872,47.8196879 24.0217783,51.6028889 L24.0721325,53.3894199 C24.0856074,53.8901203 24.0009747,54.040354 23.5943588,54.2351626 C21.919875,55.0390337 20.2696741,55.8923059 18.6459354,56.7938526 C11.2663262,60.8850681 6.00348466,66.5290914 3.00327257,73.5686139 C-1.1825092,83.3915873 -0.991966964,93.3683321 3.56922542,103.221729 C5.16921237,106.677812 7.13255343,110.633417 10.1916305,113.837616 C15.1424177,119.024807 22.406898,122 30.1222018,122 C30.1224381,122 30.1219655,122 30.1222018,122 Z" id="Shape"></path>
                    <path d="M87.3545783,65.004886 C87.2378114,65.0020854 87.1210186,65.0004566 87.0042181,65 C86.8315185,65 86.6890593,65.0060495 86.5553411,65.0186137 C81.7729119,65.4751169 77.4282557,67.7304102 74.3213186,71.3689409 C71.2150902,75.0065408 69.6981225,79.614617 70.0499002,84.3439157 C70.3645866,88.5790181 72.2012019,92.5891266 75.2207263,95.6350405 C78.2419043,98.6830485 82.2697478,100.585378 86.5605387,100.991624 C86.618184,100.997208 86.6793729,101 86.7426882,101 C87.1736101,101 87.7455738,100.866679 88.0567163,100.494403 C90.0279948,98.1532536 92.1998504,95.2955715 93.3612603,91.8513223 C93.696028,90.8599052 93.8124998,89.814741 93.9251915,88.8042449 C93.9448003,88.6278793 93.9644092,88.4517462 93.9851993,88.2765441 C94.0414271,87.8016597 93.9372404,87.414493 93.6761829,87.1257466 C93.4049666,86.8258319 92.998615,86.6738968 92.4672864,86.6738968 C92.4242887,86.6738968 92.380346,86.6748274 92.3347498,86.6769215 C89.9847609,86.7792974 87.5877582,86.8176883 85.2698993,86.8549158 L85.2096553,86.8558465 C85.1116112,86.8572425 85.0112045,86.8656187 84.9103253,86.8744604 C84.8363787,86.8809753 84.7619597,86.8884206 84.6889581,86.8884206 C84.6294228,86.8884206 84.6057977,86.8821385 84.6036716,86.8821385 L84.6034352,86.8821385 C84.5965839,86.8765545 84.57414,86.8511931 84.5462624,86.7944212 C82.5889227,82.8150256 82.1492596,78.9666247 83.201758,75.0295753 C84.0780131,71.7533155 85.7473627,68.8258319 88.3054885,66.079367 L89.2878204,65.0111683 L87.8157403,65.0111683 C87.6451671,65.0109357 87.4934939,65.0076782 87.3545783,65.004886 Z" id="Shape"></path>
                    <path d="M84.1634268,76.9836119 C84.1157724,77.3522296 84.0664908,77.7335975 84.0072135,78.1170143 C83.9793713,78.2966899 84.0329361,78.4793225 84.1538942,78.6171315 C84.2748524,78.7549406 84.451169,78.8342145 84.6367158,78.8342137 L91.6609653,78.8342137 C92.4259919,78.8342137 92.9313602,78.8342137 93.1133765,78.9537468 C93.2960903,79.0737353 93.4957736,79.5366135 93.7979719,80.2371919 L93.8161038,80.2790856 C95.6430083,84.5132934 95.4886548,88.8734097 93.3442095,93.6087462 C92.7695679,94.876709 92.0614941,96.0695365 91.3120425,97.3322628 C90.975905,97.8987364 90.6281446,98.4843352 90.2957267,99.0747154 C90.0551304,99.5013921 90.3847589,100.021191 90.8817588,99.9993332 L90.8819912,99.9993332 C90.9136059,99.997967 90.9517293,99.9977394 90.9942695,99.9975118 C91.1432764,99.9963733 91.3473765,99.9947796 91.5610073,99.9615381 C96.0811957,99.2609597 99.8407744,97.2065822 102.735136,93.8553263 C107.641674,88.1762464 108.388103,80.0659749 104.592493,73.6740218 C101.718123,68.8314467 97.3913414,65.9203007 91.733028,65.0211834 C91.6409324,65.0067925 91.5478004,64.9997113 91.4545406,65.000009 C91.2806604,65.000009 90.6813781,65.0289247 90.2762,65.3995914 C87.3934612,68.0229469 85.4740375,71.1221585 84.5709295,74.6109345 C84.369619,75.3875588 84.2694287,76.1628171 84.1634268,76.9836119 Z" id="Shape"></path>
                </g>
            </g>
        </g>
    </g>
</svg>