<?xml version="1.0" encoding="UTF-8"?>
<svg width="260px" height="260px" viewBox="0 0 260 260" version="1.1" xmlns="http://www.w3.org/2000/svg" xmlns:xlink="http://www.w3.org/1999/xlink">
    <!-- Generator: Sketch 51.2 (57519) - http://www.bohemiancoding.com/sketch -->
    <title>refine</title>
    <desc>Created with Sketch.</desc>
    <defs></defs>
    <g id="Page-1" stroke="none" stroke-width="1" fill="none" fill-rule="evenodd">
        <g id="Apple-TV" transform="translate(-373.000000, -326.000000)" fill-rule="nonzero">
            <g id="refine" transform="translate(373.000000, 326.000000)">
                <rect id="Rectangle-Copy-5" fill="#FFFFFF" x="0" y="0" width="260" height="260"></rect>
                <path d="M164.000842,100.470673 C164.000842,100.470673 137.757892,68.5985707 101.506002,95.9902887 C73.9325948,119.306698 90.1910181,152.001227 93.1082578,154.977921 C96.0316004,157.936202 139.777989,161.655534 140.315054,127.021552 C129.585959,139.542077 123.36699,150.423887 95.2076938,145.691864 C95.2076938,145.691864 82.2082787,100.219035 134.303587,90.8961534 C136.647144,91.0066286 140.846016,93.1179329 140.846016,93.1179329 C140.846016,93.1179329 115.426972,98.2918559 115.744328,121.019064 C119.296281,116.900794 131.300905,96.0087013 164.000842,100.470673 Z M97.0263913,159.335555 C97.0263913,159.335555 123.263239,191.207657 159.515129,163.809801 C187.094639,140.505666 170.830113,107.805 167.90677,104.834444 C164.98953,101.870026 121.243142,98.1568306 120.706077,132.803088 C131.435172,120.282563 137.654141,109.394616 165.813437,114.126638 C165.813437,114.126638 178.812852,159.59333 126.717544,168.916211 C124.373987,168.818011 120.175115,166.70057 120.175115,166.70057 C120.175115,166.70057 145.594159,161.520509 145.282905,138.7933 C141.730953,142.917709 129.726328,163.797526 97.0263913,159.335555 Z M203.213398,116.458429 C199.510064,116.458429 195.586996,113.553392 194.477604,109.996203 L189.841737,98.6670954 C188.094578,95.3793906 188.812736,90.539458 191.422755,87.9039045 L197.151936,82.1531159 C199.772674,79.5121727 199.772674,75.2058184 197.151936,72.5702649 L187.622953,62.9981932 C185.002214,60.3680294 180.720067,60.3680294 178.099329,62.9981932 L172.364789,68.7597611 C169.760129,71.389925 164.936684,72.1067524 161.66746,70.3497167 L150.407397,65.6876435 C146.886282,64.5827591 143.976137,60.6321237 143.976137,56.9078548 L143.976137,48.7748277 C143.976137,45.0613382 140.942726,42 137.250111,42 L123.787341,42 C120.084007,42 117.045237,45.0559486 117.045237,48.7748277 L117.045237,56.9024652 C117.045237,60.626734 114.161889,64.5773695 110.619336,65.6822539 L99.3485538,70.3443271 C96.0793302,72.1013627 91.2719635,71.389925 88.6673033,68.7543715 L82.9166853,62.9928036 C80.3013063,60.3626397 76.0191592,60.3626397 73.4037803,62.9928036 L63.8855159,72.5648752 C61.2647776,75.2004287 61.2647776,79.506783 63.8855159,82.1423365 L69.5986183,87.8985148 C72.224716,90.5340683 72.937514,95.3740009 71.1849957,98.6617057 L66.5437699,109.996203 C65.4504558,113.553392 61.5273874,116.469208 57.8133349,116.469208 L49.7367445,116.453039 C46.0387702,116.453039 43,119.503598 43,123.227867 L43,136.755964 C43,140.480233 46.0334108,143.536181 49.7367445,143.536181 L57.8133349,143.536181 C61.5273874,143.546961 65.439737,146.462778 66.5330512,150.009187 L71.1849957,161.349074 C72.9267952,164.631389 72.2139972,169.48749 69.5986183,172.106875 L63.8694378,177.863053 C61.2647776,180.493217 61.2647776,184.799571 63.8694378,187.440514 L73.3984209,197.017976 C76.0137999,199.64814 80.2959469,199.64814 82.9113259,197.017976 L88.6512252,191.251018 C91.2558854,188.631634 96.0686114,187.914806 99.3163975,189.682621 L110.608618,194.344695 C114.15117,195.449579 117.034518,199.400214 117.034518,203.135263 L117.034518,211.230562 C117.034518,214.944051 120.05721,218 123.776622,218 L137.239392,218 C140.926648,218 143.965418,214.949441 143.965418,211.230562 L143.965418,203.140652 C143.965418,199.405604 146.875563,195.454969 150.396678,194.350084 L161.678179,189.688011 C164.936684,187.920196 169.760129,188.637023 172.370148,191.256408 L178.083251,197.023365 C180.703989,199.653529 184.986136,199.653529 187.606875,197.023365 L197.135858,187.445904 C199.756596,184.804961 199.756596,180.498607 197.135858,177.868443 L191.406677,172.112265 C188.796658,169.49288 188.0785,164.636778 189.825659,161.354463 L194.461526,150.014577 C195.570918,146.468167 199.499346,143.55235 203.19732,143.55235 L211.27927,143.55235 C214.971885,143.55235 217.999936,140.512571 217.999936,136.782912 L217.999936,123.233257 C218.016014,119.508988 214.993322,116.458429 211.295348,116.458429 L203.213398,116.458429 Z M130.535047,191.1904 C96.9110471,191.1904 69.6640128,163.805994 69.6640128,129.986363 C69.6640128,96.200047 96.9165682,68.7934313 130.535047,68.7934313 C164.142483,68.7934313 191.389517,96.200047 191.389517,129.986363 C191.389517,163.805994 164.136962,191.1904 130.535047,191.1904 Z" id="Shape" stroke="#78A4FA" fill="#78A4FA"></path>
            </g>
        </g>
    </g>
</svg>