<?xml version="1.0" standalone="no"?><!DOCTYPE svg PUBLIC "-//W3C//DTD SVG 1.1//EN" "http://www.w3.org/Graphics/SVG/1.1/DTD/svg11.dtd"><svg class="icon" width="200px" height="184.34px" viewBox="0 0 1111 1024" version="1.1" xmlns="http://www.w3.org/2000/svg"><path d="M764.953958 428.035178c-31.255044 0-60.920848-1.059493-90.586653 0-69.926539 2.648733-139.853078 3.708226-207.660631 27.017072-87.408174 30.195551-133.49612 92.705639-146.739783 182.232799-9.005691 61.450595-4.767719 122.371443 1.059493 183.822038 1.059493 9.535437-4.767719 24.368339-12.18417 29.665804-11.654423 7.946198-23.838593 1.059493-31.78479-10.59493-66.74806-102.770823-116.544232-210.309364-105.949302-337.448526C183.292292 353.340921 253.748577 254.278324 398.369374 205.541645c73.634765-24.368339 149.388515-33.903777 226.201759-34.96327 39.730988-0.529747 79.461976-2.118986 119.192964-1.059493 18.541128 0.529747 23.838593-6.356958 23.308846-23.838593-1.059493-32.314537 0-64.629074-0.529747-97.473357 0-20.660114 7.416451-36.552509 26.487325-44.498707 19.600621-7.946198 37.082256-2.648733 52.444904 12.713916 82.640455 83.170202 165.810657 165.810657 248.451112 248.451112 22.7791 22.7791 22.249353 46.617693-0.529747 69.396793-82.640455 83.170202-165.280911 165.810657-248.451112 248.980859-14.303156 14.303156-30.725297 20.660114-50.325918 12.713916-19.070874-7.946198-28.076565-22.7791-28.076565-43.439214 0-33.903777 0-67.277807 0-101.181583C766.543197 443.927574 765.483704 437.040869 764.953958 428.035178z" fill="#ffffff" /><path d="M468.295913 1024c-92.705639 0-185.411278 0-278.116917 0-104.360062 0-189.64925-84.759441-189.64925-189.119503C0 648.939472 0 462.998448 0.529747 277.057424c0-103.830316 83.699948-189.64925 187.530264-192.297982 55.623383-1.059493 111.246767-0.529747 166.87015-0.529747 14.303156 0 27.017072 3.708226 29.665804 20.130367 2.648733 16.422142-8.475944 22.7791-21.719607 28.606311-26.487325 11.124677-52.974651 23.838593-79.991723 34.96327-9.005691 3.708226-19.070874 4.767719-28.606311 5.297465-29.136058 1.58924-58.801862-0.529747-86.878427 4.767719C121.841697 187.000517 89.52716 228.320745 89.52716 275.468184c-0.529747 185.941024-0.529747 371.882049 0 557.823073 0 56.682876 43.439214 101.181583 100.651837 101.181583 185.941024 1.059493 371.882049 1.059493 557.823073 0 59.331609-0.529747 102.241076-46.617693 102.241076-106.479048 0-42.909467-0.529747-85.818934 0.529747-129.258148 0-9.535437 3.708226-21.719607 10.59493-28.076565 12.713916-12.18417 28.076565-21.719607 43.439214-30.725297 14.303156-9.005691 34.433523 0 33.903777 16.422142-1.58924 75.224004 11.124677 150.977755-6.886705 225.142266-20.660114 84.759441-96.943611 141.442318-183.822038 141.442318C654.766684 1024 561.531298 1024 468.295913 1024z" fill="#ffffff" /></svg>