<?xml version="1.0" encoding="UTF-8"?>
<svg width="260px" height="260px" viewBox="0 0 260 260" version="1.1" xmlns="http://www.w3.org/2000/svg" xmlns:xlink="http://www.w3.org/1999/xlink">
    <!-- Generator: Sketch 51.2 (57519) - http://www.bohemiancoding.com/sketch -->
    <title>zipping</title>
    <desc>Created with Sketch.</desc>
    <defs></defs>
    <g id="Page-1" stroke="none" stroke-width="1" fill="none" fill-rule="evenodd">
        <g id="Apple-TV" transform="translate(-674.000000, -33.000000)" fill-rule="nonzero">
            <g id="zipping" transform="translate(674.000000, 33.000000)">
                <rect id="Rectangle-Copy" fill="#FFFFFF" x="0" y="0" width="260" height="260"></rect>
                <path d="M198.808643,208 L62.1971786,208 C54.8214286,208 49,203.33351 49,197.109579 L49,64.8904208 C49,58.6664899 54.8214286,54 62.1971786,54 L199.192857,54 C206.178571,54 212,58.6664899 212,64.8904208 L212,197.109579 C212,203.33351 206.178571,208 198.802821,208 L198.808643,208 Z M58.3201071,197.109579 C58.3201071,197.500398 59.8744286,198.66702 62.203,198.66702 L199.198679,198.66702 C201.52725,198.66702 203.081571,197.500398 203.081571,197.109579 L203.081571,64.8904208 C203.081571,64.4996023 201.52725,63.3329798 199.198679,63.3329798 L62.203,63.3329798 C59.8744286,63.3329798 58.3201071,64.4996023 58.3201071,64.8904208 L58.3201071,197.109579 Z M56.7657857,103.394796 L101.008643,103.394796 L101.008643,113.118594 L56.7657857,113.118594 L56.7657857,103.394796 Z M163.105821,103.394796 L207.348679,103.394796 L207.348679,113.118594 L163.105821,113.118594 L163.105821,103.394796 Z M69.1887143,124.003182 L86.2629643,124.003182 L86.2629643,141.1117 L69.1887143,141.1117 L69.1887143,124.003182 Z M160.387214,148.502254 C159.612964,148.502254 158.448679,148.111435 157.668607,147.72645 L131.280071,130.617931 L104.891536,147.72645 C103.337214,148.502254 101.398679,148.893072 99.8443571,147.72645 C98.2900357,146.950646 97.5157857,145.393205 97.5157857,143.450778 L97.5157857,62.563009 L107.220107,62.563009 L107.220107,134.502784 L128.9515,120.503314 C130.505821,119.336692 132.444357,119.336692 133.998679,120.503314 L155.730071,134.502784 L155.730071,62.563009 L165.434393,62.563009 L165.434393,143.450778 C165.434393,145.393205 164.660143,146.950646 163.105821,147.72645 C161.941536,148.117268 161.167286,148.502254 160.387214,148.502254 Z" id="Shape" stroke="#78A4FA" fill="#78A4FA"></path>
            </g>
        </g>
    </g>
</svg>